<?xml version="1.0" encoding="UTF-8"?>
<svg width="16px" height="12px" viewBox="0 0 16 12" version="1.1" xmlns="http://www.w3.org/2000/svg" xmlns:xlink="http://www.w3.org/1999/xlink">
    <!-- Generator: Sketch 63.1 (92452) - https://sketch.com -->
    <title>quote</title>
    <desc>Created with Sketch.</desc>
    <g id="Podcast" stroke="none" stroke-width="1" fill="none" fill-rule="evenodd">
        <g id="Episode" transform="translate(-276.000000, -2486.000000)" fill="#FA5925" fill-rule="nonzero">
            <path d="M292,2497.5 L292,2491.88741 C292,2491.61127 291.776142,2491.38741 291.5,2491.38741 L289.048825,2491.38741 L289.048825,2491.38741 C289.24557,2489.17203 290.229295,2488.06434 292,2488.06434 L292,2486 C289.581193,2486.14545 287.833635,2486.78601 286.757324,2487.92168 C285.681013,2489.05734 285.142857,2490.83357 285.142857,2493.25035 L285.142857,2497.5 C285.142857,2497.77614 285.366715,2498 285.642857,2498 L291.5,2498 C291.776142,2498 292,2497.77614 292,2497.5 Z M282.857143,2497.5 L282.857143,2491.88741 C282.857143,2491.61127 282.633285,2491.38741 282.357143,2491.38741 L279.905967,2491.38741 L279.905967,2491.38741 C280.114286,2489.17203 281.098011,2488.06434 282.857143,2488.06434 L282.857143,2486 C280.438336,2486.14545 278.690778,2486.78601 277.614467,2487.92168 C276.538156,2489.05734 276,2490.83357 276,2493.25035 L276,2497.5 C276,2497.77614 276.223858,2498 276.5,2498 L282.357143,2498 C282.633285,2498 282.857143,2497.77614 282.857143,2497.5 Z" id="quote"></path>
        </g>
    </g>
</svg>