<svg width="57" height="61" viewBox="0 0 57 61" fill="none" xmlns="http://www.w3.org/2000/svg">
<path fill-rule="evenodd" clip-rule="evenodd" d="M0.800781 30.2001H7.05078V51.8H0.800781V60.2001H56.2008V51.8H49.9508V30.2001H56.2008V23.8575L29.7008 14.703V7.20005H34.3008V10.2H42.7008V3.80005H36.2008V0.800049H27.8008V14.5303L0.800781 23.8575V30.2001ZM36.2008 5.70005H40.8008V8.30005H36.2008V5.70005ZM34.3008 5.30005H29.7008V2.70005H34.3008V5.30005ZM2.70078 28.3V25.2114L28.5008 16.2986L54.3008 25.2114V28.3H2.70078ZM12.0508 30.2001V51.8H8.95078V30.2001H12.0508ZM19.0508 30.2001V51.8H13.9508V30.2001H19.0508ZM24.0508 30.2001V51.8H20.9508V30.2001H24.0508ZM31.0508 30.2001V51.8H25.9508V30.2001H31.0508ZM36.0508 30.2001V51.8H32.9508V30.2001H36.0508ZM43.0508 30.2001V51.8H37.9508V30.2001H43.0508ZM48.0508 30.2001V51.8H44.9508V30.2001H48.0508ZM54.3008 53.7001V58.3H2.70078V53.7001H54.3008Z" fill="#26262B"/>
</svg>
