<svg width="53" height="65" viewBox="0 0 53 65" fill="none" xmlns="http://www.w3.org/2000/svg">
<path d="M11.0742 26.7719C11.0742 27.2977 11.5004 27.724 12.0264 27.724C12.5523 27.724 12.9785 27.2977 12.9785 26.7719C12.9785 21.782 15.7123 17.2146 20.113 14.852C20.5763 14.6033 20.7503 14.026 20.5016 13.5628C20.2528 13.0995 19.6757 12.9255 19.2123 13.1742C14.1924 15.8691 11.0742 21.0794 11.0742 26.7719ZM2.7838 32.2698C2.30392 30.344 2.06055 28.3498 2.06055 26.3428C2.06055 21.4054 3.52533 16.6488 6.29672 12.5869C9.00336 8.61974 12.7726 5.5594 17.1967 3.73687C17.6829 3.53653 17.9147 2.9801 17.7144 2.49374C17.5142 2.00764 16.9579 1.77557 16.4714 1.97603C11.7026 3.94062 7.64039 7.23874 4.72377 11.5136C1.73555 15.893 0.15625 21.0209 0.15625 26.3428C0.15625 28.5048 0.418535 30.6538 0.936123 32.7302C1.06435 33.2448 1.59082 33.5483 2.09025 33.4238C2.60048 33.2968 2.91101 32.7801 2.7838 32.2698ZM32.885 14.852C37.2857 17.2146 40.0195 21.782 40.0195 26.7719C40.0195 27.2977 40.4457 27.724 40.9717 27.724C41.4976 27.724 41.9238 27.2977 41.9238 26.7719C41.9238 21.0794 38.8056 15.8691 33.7858 13.1742C33.3224 12.9255 32.7452 13.0994 32.4964 13.5628C32.2477 14.026 32.4216 14.6032 32.885 14.852ZM20.173 50.9584C20.3228 50.4542 20.0355 49.9242 19.5312 49.7745C16.3322 48.8244 13.4057 47.2516 10.8333 45.0997C10.4298 44.7624 9.82944 44.8158 9.492 45.2192C9.15469 45.6225 9.20813 46.223 9.61134 46.5604C12.3844 48.88 15.5394 50.5755 18.9891 51.6C19.4803 51.7458 20.0215 51.4681 20.173 50.9584ZM48.5221 37.7427L39.0797 29.716C37.6808 28.5148 35.8033 29.0791 34.7797 30.4232L31.7804 28.6914C32.9905 25.4301 30.9077 21.7774 27.4512 21.1899V17.5396C27.7559 17.4343 28.0515 17.2946 28.3315 17.1167C29.5382 16.3497 30.2585 15.0382 30.2585 13.6085V2.64367C30.2584 1.186 29.0725 0 27.6147 0C26.3377 0 25.2441 0.911777 25.0142 2.16798L22.7842 14.3585C22.5575 15.5981 23.1961 16.8374 24.337 17.3724C24.7268 17.5551 25.1345 17.6725 25.5469 17.7288V21.1922C23.9085 21.4744 22.4921 22.4489 21.6475 23.8815C20.7557 25.3944 20.6545 27.1581 21.2184 28.6903L18.0542 30.5178C17.8106 30.3063 17.5411 30.12 17.2468 29.9665C15.9796 29.3051 14.4834 29.3371 13.2451 30.0518L3.74953 35.5342C2.49587 36.2477 2.06093 37.8967 2.78189 39.1455C3.42555 40.2605 4.77684 40.7375 5.95953 40.3136L17.6319 36.1495C18.8189 35.7261 19.5728 34.5535 19.4654 33.2978C19.4288 32.8693 19.3271 32.4576 19.1698 32.0725L22.1681 30.3408C22.5118 30.7552 22.9197 31.1259 23.3885 31.436L22.5133 48.7185C22.4849 49.2609 22.9208 49.7188 23.465 49.7188C23.9687 49.7188 24.3893 49.3236 24.4151 48.8148L25.2549 32.2311C25.6635 32.3233 26.0772 32.3714 26.4891 32.3714C26.9123 32.3714 27.3325 32.321 27.7428 32.2278L29.3061 63.0957H23.692L24.4151 48.8148C24.4417 48.2895 24.0375 47.8424 23.5123 47.8158C22.9874 47.7871 22.5399 48.1934 22.5133 48.7185L21.7853 63.0957H10.6746C10.1486 63.0957 9.72242 63.522 9.72242 64.0479C9.72242 64.5737 10.1486 65 10.6746 65H42.3225C42.8484 65 43.2746 64.5737 43.2746 64.0479C43.2746 63.522 42.8484 63.0957 42.3225 63.0957H31.2128L29.6094 31.4332C30.0601 31.1355 30.4709 30.769 30.8272 30.3399L33.9912 32.1667C33.6526 33.889 34.4463 35.6778 35.9923 36.564L45.488 42.0465C46.7364 42.7687 48.3625 42.3551 49.0993 41.0787C49.7378 39.9728 49.4951 38.5699 48.5221 37.7427ZM16.992 34.3561L5.31969 38.5201C4.98313 38.6405 4.60964 38.5027 4.43102 38.1933C4.22992 37.8451 4.3523 37.3827 4.70168 37.1833L14.1974 31.701C14.8793 31.3073 15.6697 31.2914 16.3659 31.6547C17.063 32.0186 17.5012 32.6765 17.5683 33.46C17.6019 33.8543 17.365 34.223 16.992 34.3561ZM25.1453 15.6481C24.7868 15.48 24.5862 15.0907 24.6574 14.7013L26.8874 2.51075C26.9516 2.15935 27.2574 1.90442 27.6147 1.90442C28.0225 1.90442 28.3541 2.23615 28.3541 2.6438V13.6085C28.3541 14.3948 27.9735 15.0877 27.3097 15.5096C26.6464 15.9313 25.8574 15.9821 25.1453 15.6481ZM29.7093 28.6341C28.6657 30.4045 26.3765 30.9959 24.6058 29.9521C22.8355 28.9084 22.2443 26.619 23.288 24.8485C23.9644 23.7011 25.175 23.0139 26.499 23.0139C26.5049 23.0139 26.5105 23.0132 26.5162 23.013C29.2652 22.9652 31.1621 26.1695 29.7093 28.6341ZM47.4501 40.1266C47.2462 40.4798 46.7934 40.601 46.4401 40.3972L36.9444 34.9148C35.5221 34.1098 35.4488 32.0291 36.7824 31.1161C37.1086 30.8926 37.5446 30.9104 37.8463 31.167L47.2886 39.1935C47.5607 39.4249 47.6287 39.8173 47.4501 40.1266ZM26.4986 25.7893C25.9728 25.7893 25.5465 26.2156 25.5465 26.7414C25.5465 27.2672 25.9728 27.6936 26.4986 27.6936C27.0245 27.6936 27.4508 27.2672 27.4508 26.7414C27.4508 26.2156 27.0245 25.7893 26.4986 25.7893ZM42.1649 45.0996C39.5904 47.2522 36.6639 48.825 33.4667 49.7745C32.9625 49.9242 32.6753 50.4542 32.825 50.9584C32.9763 51.4676 33.5157 51.7465 34.0087 51.6C37.4562 50.5761 40.6114 48.8806 43.3862 46.5606C43.7897 46.2233 43.8434 45.6228 43.5059 45.2194C43.169 44.8159 42.5684 44.7624 42.1649 45.0996ZM48.2743 11.5136C45.3575 7.23874 41.2953 3.94063 36.5265 1.97615C36.0406 1.77569 35.4838 2.00764 35.2836 2.49387C35.0832 2.9801 35.315 3.53666 35.8013 3.73699C40.2255 5.55953 43.9946 8.61986 46.7012 12.587C49.4726 16.6489 50.9374 21.4056 50.9374 26.3429C50.9374 28.3499 50.694 30.344 50.2141 32.27C50.0869 32.7802 50.3974 33.2969 50.9078 33.4241C51.4049 33.548 51.9333 33.2462 52.0619 32.7304C52.5794 30.6541 52.8418 28.505 52.8418 26.343C52.8418 21.0209 51.2625 15.893 48.2743 11.5136Z" fill="#26262B"/>
</svg>
