<svg width="66" height="56" viewBox="0 0 66 56" fill="none" xmlns="http://www.w3.org/2000/svg">
<path fill-rule="evenodd" clip-rule="evenodd" d="M27.7053 42.8142V50.2732H34.0987V42.8142H27.7053ZM32.5004 44.4125H29.3037V48.6748H32.5004V44.4125Z" fill="#26262B"/>
<path fill-rule="evenodd" clip-rule="evenodd" d="M37.2955 42.8142V50.2732H43.6889V42.8142H37.2955ZM42.0905 44.4125H38.8938V48.6748H42.0905V44.4125Z" fill="#26262B"/>
<path fill-rule="evenodd" clip-rule="evenodd" d="M46.8856 50.2732V42.8142H53.2791V50.2732H46.8856ZM48.484 44.4125H51.6807V48.6748H48.484V44.4125Z" fill="#26262B"/>
<path fill-rule="evenodd" clip-rule="evenodd" d="M9.59055 6.65567V14.1147H15.984V6.65567H9.59055ZM14.3856 8.25403H11.1889V12.5163H14.3856V8.25403Z" fill="#26262B"/>
<path fill-rule="evenodd" clip-rule="evenodd" d="M18.5397 14.1147V6.65567H24.9331V14.1147H18.5397ZM20.1381 8.25403H23.3348V12.5163H20.1381V8.25403Z" fill="#26262B"/>
<path fill-rule="evenodd" clip-rule="evenodd" d="M27.4889 6.65567V14.1147H33.8823V6.65567H27.4889ZM32.2839 8.25403H29.0872V12.5163H32.2839V8.25403Z" fill="#26262B"/>
<path fill-rule="evenodd" clip-rule="evenodd" d="M9.59055 26.3688V18.9098H15.984V26.3688H9.59055ZM11.1889 20.5081H14.3856V24.7704H11.1889V20.5081Z" fill="#26262B"/>
<path fill-rule="evenodd" clip-rule="evenodd" d="M18.5397 18.9098V26.3688H24.9331V18.9098H18.5397ZM23.3348 20.5081H20.1381V24.7704H23.3348V20.5081Z" fill="#26262B"/>
<path fill-rule="evenodd" clip-rule="evenodd" d="M27.4889 26.3688V18.9098H33.8823V26.3688H27.4889ZM29.0872 20.5081H32.2839V24.7704H29.0872V20.5081Z" fill="#26262B"/>
<path fill-rule="evenodd" clip-rule="evenodd" d="M58.3713 53.9158V38.9847H61.1896C61.7509 38.9847 62.2058 38.5298 62.2058 37.9685C62.2058 37.4073 61.7509 36.9523 61.1896 36.9523H39.1902V2.3662H39.9389C40.5001 2.3662 40.9551 1.91122 40.9551 1.34998C40.9551 0.788737 40.5001 0.333761 39.9389 0.333754L3.491 0.333265C2.93871 0.333258 2.49098 0.780975 2.49098 1.33327V1.36568C2.49098 1.91797 2.9387 2.36568 3.49098 2.36568H5.004V53.9155L1.39116 53.9159C0.829932 53.916 0.375 54.371 0.375 54.9322C0.375 55.4935 0.83 55.9485 1.39127 55.9485H64.3588C64.92 55.9485 65.375 55.4935 65.375 54.9323C65.375 54.371 64.92 53.916 64.3588 53.916L58.3713 53.9158ZM56.3389 53.9158H24.4164V38.9847H56.3389V53.9158ZM7.04606 2.36593H37.1576V36.952H19.0482V38.9845H22.3929V53.9155H18.9143V42.015H9.85694V53.9155H7.04555L7.04606 2.36593ZM11.4553 53.9155V43.6133H17.316V53.9155H11.4553Z" fill="#26262B"/>
</svg>
