<svg width="66" height="44" viewBox="0 0 66 44" fill="none" xmlns="http://www.w3.org/2000/svg">
<path fill-rule="evenodd" clip-rule="evenodd" d="M17.3326 37.9631C19.2453 37.9631 20.7958 36.4126 20.7958 34.4999C20.7958 32.5873 19.2453 31.0368 17.3326 31.0368C15.42 31.0368 13.8695 32.5873 13.8695 34.4999C13.8695 36.4126 15.42 37.9631 17.3326 37.9631ZM19.0695 34.4999C19.0695 35.4592 18.2919 36.2368 17.3326 36.2368C16.3734 36.2368 15.5958 35.4592 15.5958 34.4999C15.5958 33.5407 16.3734 32.7631 17.3326 32.7631C18.2919 32.7631 19.0695 33.5407 19.0695 34.4999Z" fill="#26262B"/>
<path fill-rule="evenodd" clip-rule="evenodd" d="M54.3791 0.703491H47.4529V7.20349H44.2029V26.7035H37.8082V14.0285H5.52871V26.7035H0.0820312L10.6959 39.2703C9.13045 38.9063 7.47256 39.0701 5.99034 39.7618L1.47471 41.8691C1.04808 42.0682 0.863626 42.5754 1.06272 43.0021C1.26182 43.4287 1.76907 43.6132 2.1957 43.4141L6.71132 41.3068C8.19657 40.6137 9.91248 40.6137 11.3977 41.3068L13.9821 42.5128C15.9244 43.4192 18.1683 43.4192 20.1105 42.5128L22.6949 41.3068C24.1802 40.6137 25.8961 40.6137 27.3813 41.3068L29.9657 42.5128C31.908 43.4192 34.1519 43.4192 36.0941 42.5128L38.6785 41.3068C40.1638 40.6137 41.8797 40.6137 43.3649 41.3068L45.9494 42.5128C47.8916 43.4192 50.1355 43.4192 52.0777 42.5128L54.6621 41.3068C56.1474 40.6137 57.8633 40.6137 59.3485 41.3068L63.8642 43.4141C64.2908 43.6132 64.7981 43.4287 64.9972 43.0021C65.1962 42.5754 65.0118 42.0682 64.5852 41.8691L61.5604 40.4575L65.2777 26.7035H57.6291V7.20349H54.3791V0.703491ZM59.8599 39.668L62.916 28.5381H3.89211L14.4611 40.8549L14.7031 40.9679C16.1884 41.661 17.9043 41.661 19.3895 40.9679L21.9739 39.7618C23.9162 38.8554 26.1601 38.8554 28.1023 39.7618L30.6867 40.9679C32.172 41.661 33.8879 41.661 35.3731 40.9679L37.9576 39.7618C39.8998 38.8554 42.1437 38.8554 44.0859 39.7618L46.6703 40.9679C48.1556 41.661 49.8715 41.661 51.3567 40.9679L53.9412 39.7618C55.8139 38.8879 57.9671 38.8566 59.8599 39.668ZM52.6529 6.98682H49.1791V2.42972H52.6529V6.98682ZM45.9291 26.4868V15.2131L55.9029 15.2131V26.4868H45.9291ZM45.9291 8.92972H55.9029V13.4869L45.9291 13.4869V8.92972ZM20.5854 20.4201H14.5124V15.7548H20.5854V20.4201ZM7.25905 15.7548H12.7862V20.4201H7.25905V15.7548ZM28.3845 15.7548V20.4201H22.3116V15.7548H28.3845ZM36.0779 15.7548V20.4201H30.1107V15.7548H36.0779ZM14.5124 22.1463V26.7035H20.5854V22.1463H14.5124ZM7.25905 22.1463H12.7862V26.7035H7.25905V22.1463ZM28.3845 22.1463V26.7035H22.3116V22.1463H28.3845ZM36.0779 22.1463V26.7035H30.1107V22.1463H36.0779Z" fill="#26262B"/>
</svg>
